# xmcd
#
# Track frame offsets:
#   150
#   10383
#   23755
#   37653
#   49405
#   61443
#   73340
#   85050
#   95907
#   108480
#   125080
#   134430
#   147602
#   155192
#   168480
#   178980
#   190163
#   201360
#   212752
#   227353
#
# Disc length: 3151 seconds
#
# Revision: 0
# Processed by: cddbd v1.5.1PL2 Copyright (c) Steve Scherf et al.
# Submitted via: GXTranscoder 2.0.1939
#
DISCID=340c4d14
DTITLE=LEO DAN - Personalidad
DYEAR=1900
DGENRE=Blues
TTITLE0=Como poder si te amo
TTITLE1=Mi barrio es tepito
TTITLE2=Co los brazos cruzados
TTITLE3=Mi ultima serenata
TTITLE4=pareces una nena
TTITLE5=Me desperte llorando
TTITLE6=Fanny
TTITLE7=Quien no tiene una ilusion
TTITLE8=Una calle separada
TTITLE9=Pideme la luna
TTITLE10=Maria Isabel
TTITLE11=Un camaleon
TTITLE12=Por que jamas te olvido
TTITLE13=Me estoy enamorando
TTITLE14=Estelita
TTITLE15=No existe una ley
TTITLE16=Nunca me impederas amarte
TTITLE17=Mi corazon te podra decir
TTITLE18=El amor estubo aqui
TTITLE19=Desencadena mi corazon
EXTD=
EXTT0=
EXTT1=
EXTT2=
EXTT3=
EXTT4=
EXTT5=
EXTT6=
EXTT7=
EXTT8=
EXTT9=
EXTT10=
EXTT11=
EXTT12=
EXTT13=
EXTT14=
EXTT15=
EXTT16=
EXTT17=
EXTT18=
EXTT19=
PLAYORDER=
